<?xml version="1.0" encoding="utf-8"?>
<!-- Generator: Adobe Illustrator 24.1.2, SVG Export Plug-In . SVG Version: 6.00 Build 0)  -->
<svg version="1.1" id="Слой_1" xmlns="http://www.w3.org/2000/svg" xmlns:xlink="http://www.w3.org/1999/xlink" x="0px" y="0px"
	 viewBox="0 0 360.83 191.52" style="enable-background:new 0 0 360.83 191.52;" xml:space="preserve">
<style type="text/css">
	.st0{fill-rule:evenodd;clip-rule:evenodd;fill:#FFFFFF;}
	.st1{fill:none;stroke:#FFFFFF;stroke-width:2.5512;stroke-miterlimit:22.9256;}
	.st2{fill:#FFFFFF;}
	.st3{fill:#A04E4E;}
	.st4{fill-rule:evenodd;clip-rule:evenodd;fill:#102D69;}
	.st5{fill:#FFFFFF;stroke:#FFFFFF;stroke-miterlimit:22.9256;}
	.st6{fill-rule:evenodd;clip-rule:evenodd;fill:#A04E4E;}
</style>
<path class="st0" d="M85.07,30.34l5.64,26.02l11,50.7h-22h-22l11-50.7l5.64-26.02H85.07z M88.61,30.37l8.84,39.05l17.73,78.37
	h-11.79l-1.12-4.94H79.71H57.15l-1.12,4.94H44.24l17.74-78.37l8.84-39.05H88.61z"/>
<path class="st1" d="M301.74,102.59h41.98l-1.93,7.94h-14.56l-7.84,32.27H306.6l7.84-32.27h-14.63L301.74,102.59z M296.25,102.59
	l-9.77,40.21h-12.87l5.2-21.39l-18.15,21.39h-13.37l9.77-40.21h12.86l-5.2,21.39l18.15-21.39H296.25z M224.74,110.97
	c-2.74,0-5.1,1-7.06,3.03c-1.96,2.02-3.4,4.94-4.33,8.74c-0.92,3.8-0.9,6.71,0.08,8.74c0.98,2.02,2.84,3.03,5.59,3.03
	c2.74,0,5.08-1,7.02-3.01c1.93-2.01,3.36-4.93,4.29-8.75c0.93-3.82,0.91-6.74-0.04-8.75C229.34,111.98,227.49,110.97,224.74,110.97z
	 M209.89,137l-5.13,21.1H191.9l13.48-55.5h12.86l-1.43,5.88c2.34-2.34,4.73-4.07,7.14-5.17c2.43-1.11,5.04-1.67,7.84-1.67
	c4.95,0,8.54,1.97,10.76,5.91c2.23,3.93,2.59,8.99,1.09,15.19c-1.51,6.2-4.33,11.26-8.47,15.19c-4.13,3.93-8.68,5.91-13.63,5.91
	c-2.81,0-5.15-0.55-7.03-1.67C212.64,141.06,211.1,139.34,209.89,137z M179.56,118.32c0.6-2.45,0.36-4.41-0.69-5.92
	c-1.07-1.5-2.74-2.24-5.04-2.24c-2.49,0-4.68,0.7-6.58,2.11c-1.9,1.4-3.35,3.42-4.37,6.05H179.56z M191.76,122.6l-0.89,3.66H160.8
	c-0.43,3.01,0.12,5.27,1.63,6.78c1.5,1.51,3.92,2.27,7.28,2.27c2.71,0,5.57-0.4,8.6-1.2c3.04-0.81,6.25-2.02,9.64-3.65l-2.41,9.92
	c-3.31,1.14-6.56,2-9.74,2.59c-3.18,0.58-6.29,0.87-9.33,0.87c-7.28,0-12.48-1.85-15.61-5.54c-3.13-3.7-3.9-8.88-2.27-15.56
	c1.59-6.56,4.83-11.71,9.7-15.46c4.87-3.76,10.78-5.64,17.73-5.64c6.31,0,10.91,1.9,13.78,5.71
	C192.64,111.14,193.3,116.23,191.76,122.6z M97.34,102.59h14.79l4.17,20.11l13.93-20.11h14.83l-9.77,40.21h-12.79l5.54-22.8
	l-10.45,15.08h-8.44L105.97,120l-5.54,22.8H87.57L97.34,102.59z"/>
<g>
	<path class="st2" d="M189.99,159.59l14.21-58.5h15.95l-0.78,3.19c1.31-0.96,2.63-1.74,3.95-2.35c2.6-1.2,5.45-1.8,8.47-1.8
		c5.51,0,9.57,2.24,12.06,6.67c2.41,4.26,2.83,9.74,1.24,16.28c-1.57,6.45-4.56,11.81-8.89,15.93c-4.4,4.19-9.33,6.32-14.66,6.32
		c-3.07,0-5.69-0.63-7.8-1.88c-1.19-0.7-2.26-1.62-3.22-2.76l-4.59,18.9H189.99z M224.74,112.47c-2.35,0-4.3,0.84-5.98,2.57
		c-1.76,1.82-3.09,4.52-3.95,8.05c-0.83,3.44-0.84,6.04-0.02,7.73c0.45,0.94,1.39,2.18,4.24,2.18c2.34,0,4.28-0.84,5.94-2.55
		c1.74-1.81,3.06-4.52,3.92-8.06c0.84-3.46,0.86-6.07,0.06-7.75C228.5,113.7,227.58,112.47,224.74,112.47z M166.46,145.33
		c-7.7,0-13.33-2.04-16.75-6.07c-3.45-4.08-4.32-9.76-2.59-16.89c1.67-6.86,5.11-12.35,10.24-16.3c5.11-3.95,11.38-5.95,18.64-5.95
		c6.79,0,11.83,2.12,14.98,6.31c3.14,4.16,3.89,9.72,2.24,16.51l-1.17,4.81h-1.91l-3.34,13.77l-0.78,0.27
		c-3.35,1.15-6.7,2.04-9.96,2.64C172.78,145.03,169.55,145.33,166.46,145.33z M162.16,127.76c-0.07,1.87,0.36,3.26,1.32,4.21
		c1.21,1.21,3.3,1.83,6.22,1.83c2.55,0,5.32-0.39,8.22-1.15c2.95-0.78,6.1-1.98,9.37-3.55l2.78-1.34H162.16z M178.32,116.82
		c0.19-1.47-0.04-2.64-0.68-3.56c-0.49-0.68-1.42-1.6-3.81-1.6c-2.18,0-4.04,0.59-5.68,1.81c-1.14,0.84-2.11,1.96-2.91,3.35H178.32z
		 M304.7,144.3l7.84-32.27h-14.63l2.66-10.94h45.06l-2.66,10.94h-14.56l-7.84,32.27H304.7z M271.7,144.3l4.15-17.09l-14.5,17.09
		h-15.97l10.5-43.21h15.95l-4.15,17.09l14.5-17.09h15.97l-10.5,43.21H271.7z M120.58,144.3l4.09-16.82l-6.3,9.1h-10.45l-2.05-9.78
		l-4.25,17.5H85.66l10.5-43.21h17.19l3.71,17.88l12.38-17.88h17.52l-10.5,43.21H120.58z"/>
	<path class="st3" d="M231.8,101.64c4.95,0,8.54,1.97,10.76,5.91c2.23,3.93,2.59,8.99,1.09,15.19c-1.51,6.2-4.33,11.26-8.47,15.19
		c-4.13,3.93-8.68,5.91-13.63,5.91c-2.81,0-5.15-0.55-7.03-1.67c-1.88-1.1-3.42-2.83-4.62-5.17l-5.13,21.1H191.9l13.48-55.5h12.86
		l-1.43,5.88c2.34-2.34,4.73-4.07,7.14-5.17C226.39,102.19,228.99,101.64,231.8,101.64 M219.03,134.5c2.74,0,5.08-1,7.02-3.01
		c1.93-2.01,3.36-4.93,4.29-8.75c0.93-3.82,0.91-6.74-0.04-8.75c-0.96-2.01-2.81-3.01-5.55-3.01s-5.1,1-7.06,3.03
		c-1.96,2.02-3.4,4.94-4.33,8.74c-0.92,3.8-0.9,6.71,0.08,8.74C214.42,133.49,216.28,134.5,219.03,134.5 M175.99,101.64
		c6.31,0,10.91,1.9,13.78,5.71c2.86,3.8,3.53,8.88,1.98,15.25l-0.89,3.66H160.8c-0.43,3.01,0.12,5.27,1.63,6.78
		c1.5,1.51,3.92,2.27,7.28,2.27c2.71,0,5.57-0.4,8.6-1.2c3.04-0.81,6.25-2.02,9.64-3.65l-2.41,9.92c-3.31,1.14-6.56,2-9.74,2.59
		c-3.18,0.58-6.29,0.87-9.33,0.87c-7.28,0-12.48-1.85-15.61-5.54c-3.13-3.7-3.9-8.88-2.27-15.56c1.59-6.56,4.83-11.71,9.7-15.46
		C163.14,103.51,169.05,101.64,175.99,101.64 M162.87,118.32h16.69c0.6-2.45,0.36-4.41-0.69-5.92c-1.07-1.5-2.74-2.24-5.04-2.24
		c-2.49,0-4.68,0.7-6.58,2.11C165.35,113.67,163.89,115.69,162.87,118.32 M343.72,102.59l-1.93,7.94h-14.56l-7.84,32.27H306.6
		l7.84-32.27h-14.63l1.93-7.94H343.72 M296.25,102.59l-9.77,40.21h-12.87l5.2-21.39l-18.15,21.39h-13.37l9.77-40.21h12.86
		l-5.2,21.39l18.15-21.39H296.25 M145.05,102.59l-9.77,40.21h-12.79l5.54-22.8l-10.45,15.08h-8.44L105.97,120l-5.54,22.8H87.57
		l9.77-40.21h14.79l4.17,20.11l13.93-20.11H145.05 M231.8,98.64c-3.23,0-6.29,0.65-9.09,1.94c-0.33,0.15-0.67,0.32-1,0.49l0.36-1.47
		h-3.82h-12.86h-2.36l-0.56,2.29l-13.48,55.5l-0.9,3.71h3.82h12.86h2.36l0.56-2.29l3.69-15.18c0.52,0.42,1.06,0.8,1.63,1.13
		c2.33,1.38,5.21,2.08,8.55,2.08c5.72,0,11-2.27,15.7-6.73c4.54-4.32,7.68-9.92,9.31-16.66c1.68-6.93,1.22-12.78-1.39-17.38
		C242.43,101.21,237.81,98.64,231.8,98.64L231.8,98.64z M219.03,131.5c-2.24,0-2.66-0.87-2.89-1.33c-0.46-0.94-0.8-2.87,0.13-6.72
		c0.79-3.26,1.99-5.73,3.57-7.36c1.4-1.44,2.96-2.12,4.9-2.12c2.22,0,2.63,0.85,2.85,1.31c0.45,0.94,0.78,2.87-0.16,6.75
		c-0.8,3.28-1.99,5.76-3.54,7.38C222.51,130.83,220.97,131.5,219.03,131.5L219.03,131.5z M175.99,98.64
		c-7.6,0-14.18,2.11-19.56,6.26c-5.4,4.16-9.03,9.92-10.78,17.13c-1.85,7.62-0.88,13.75,2.9,18.21c3.72,4.38,9.75,6.6,17.9,6.6
		c3.18,0,6.5-0.31,9.86-0.92c3.34-0.62,6.77-1.53,10.18-2.7l1.55-0.53l0.39-1.6l2.41-9.92l0.46-1.9h1.91l0.56-2.29l0.89-3.66
		c1.76-7.25,0.92-13.23-2.5-17.77C188.72,100.96,183.28,98.64,175.99,98.64L175.99,98.64z M168.27,115.32
		c0.24-0.23,0.5-0.44,0.76-0.64c1.38-1.03,2.95-1.52,4.8-1.52c1.9,0,2.39,0.69,2.6,0.99c0.1,0.15,0.34,0.48,0.42,1.17H168.27
		L168.27,115.32z M163.75,129.26h19.49c-1.97,0.81-3.88,1.46-5.71,1.94c-2.77,0.73-5.41,1.1-7.83,1.1c-2.47,0-4.25-0.48-5.15-1.38
		C164.15,130.52,163.88,129.97,163.75,129.26L163.75,129.26z M347.54,99.59h-3.82h-41.98h-1.68h-3.82h-13.37h-1.39l-0.9,1.06
		l-9.96,11.74l2.21-9.09l0.9-3.71h-3.82h-12.86h-2.36l-0.56,2.29l-9.77,40.21l-0.9,3.71h3.82h13.37h1.39l0.9-1.06l9.95-11.73
		l-2.21,9.09l-0.9,3.71h3.82h12.87h2.36l0.56-2.29l7.28-29.98h3.14h10.81l-6.94,28.56l-0.9,3.71h3.82h12.79h2.36l0.56-2.29
		l7.28-29.98h12.2h2.36l0.56-2.29l1.93-7.94L347.54,99.59L347.54,99.59z M148.87,99.59h-3.82h-14.83h-1.57l-0.89,1.29l-9.94,14.36
		l-2.75-13.26l-0.5-2.39h-2.44H97.34h-2.36l-0.56,2.29l-9.77,40.21l-0.9,3.71h3.82h12.86h2.36l0.56-2.29l2.41-9.91l0.44,2.1
		l0.5,2.38h2.44h8.44h1.57l0.89-1.29l1.26-1.82l-1.73,7.12l-0.9,3.71h3.82h12.79h2.36l0.56-2.29l9.77-40.21L148.87,99.59
		L148.87,99.59z"/>
</g>
<path class="st0" d="M79.71,34.81L79.71,34.81c2.69,0,4.89,2.2,4.89,4.89v66.01h-9.78V39.7C74.82,37.01,77.02,34.81,79.71,34.81"/>
<rect x="40.52" y="86.73" transform="matrix(0.3802 -0.9249 0.9249 0.3802 -23.2844 140.8613)" class="st4" width="105.86" height="2.15"/>
<rect x="40.52" y="86.73" transform="matrix(0.3802 -0.9249 0.9249 0.3802 -23.2844 140.8613)" class="st5" width="105.86" height="2.15"/>
<path class="st0" d="M88.63,82.48c1.99,0.82,3.99,1.64,5.99,2.46c2,0.82,3.99,1.64,5.99,2.46c-1.02,1.57-2.03,3.14-3.04,4.71
	c-1.01,1.57-2.03,3.14-3.04,4.71c-1.37-0.56-2.74-1.12-4.1-1.69c-1.37-0.56-2.73-1.12-4.1-1.69c0.38-1.83,0.77-3.66,1.15-5.48
	C87.86,86.14,88.24,84.31,88.63,82.48"/>
<path class="st6" d="M90.5,84.9c0.76,0.31,1.12,1.18,0.81,1.93c-0.31,0.76-1.17,1.12-1.93,0.81c-0.75-0.31-1.12-1.17-0.8-1.93
	C88.88,84.95,89.74,84.59,90.5,84.9"/>
<path class="st6" d="M97.57,87.81c0.75,0.31,1.12,1.18,0.81,1.93c-0.31,0.76-1.18,1.12-1.93,0.81c-0.76-0.31-1.12-1.17-0.81-1.93
	C95.95,87.86,96.82,87.5,97.57,87.81"/>
<rect x="77.98" y="31.18" class="st0" width="3.52" height="8.53"/>
<polygon class="st0" points="70.83,26.64 70.83,26.64 75.27,24.68 79.72,22.73 84.17,24.68 88.61,26.64 88.61,26.64 88.61,30.37 
	70.83,30.37 "/>
<path class="st6" d="M70.83,26.64L70.83,26.64l4.45-1.96l4.45-1.96l4.45,1.96l4.45,1.96h0v3.73H70.83V26.64z M70.54,25.25l4.17-1.84
	l4.45-1.96l0.56-0.24l0.56,0.24l4.45,1.96l4.17,1.84H90v1.39v3.73v1.39h-1.39H70.83h-1.39v-1.39v-3.73v-1.39H70.54z"/>
</svg>
