<?xml version="1.0" encoding="utf-8"?>
<!-- Generator: Adobe Illustrator 24.1.2, SVG Export Plug-In . SVG Version: 6.00 Build 0)  -->
<svg version="1.1" id="Слой_1" xmlns="http://www.w3.org/2000/svg" xmlns:xlink="http://www.w3.org/1999/xlink" x="0px" y="0px"
	 viewBox="0 0 70 70" style="enable-background:new 0 0 70 70;" xml:space="preserve">
<style type="text/css">
	.st0{fill:#FFFFFF;}
</style>
<g>
	<path class="st0" d="M58.33,38.08c-1.15,0-2.08,0.93-2.08,2.08v21.08H14.1V40.16c0-1.15-0.93-2.08-2.08-2.08s-2.08,0.93-2.08,2.08
		v23.15c0,1.15,0.93,2.08,2.08,2.08h46.31c1.15,0,2.08-0.93,2.08-2.08V40.16C60.41,39.01,59.48,38.08,58.33,38.08z"/>
	<path class="st0" d="M69.39,38.69L36.64,5.95c-0.81-0.81-2.13-0.81-2.94,0L0.96,38.69c-0.81,0.81-0.81,2.13,0,2.94
		c0.41,0.41,0.94,0.61,1.47,0.61c0.53,0,1.06-0.2,1.47-0.61l31.27-31.27l31.28,31.27c0.81,0.81,2.13,0.81,2.94,0
		C70.2,40.82,70.2,39.5,69.39,38.69z"/>
</g>
</svg>
