<?xml version="1.0" encoding="utf-8"?>
<!-- Generator: Adobe Illustrator 24.1.2, SVG Export Plug-In . SVG Version: 6.00 Build 0)  -->
<svg version="1.1" id="Слой_1" xmlns="http://www.w3.org/2000/svg" xmlns:xlink="http://www.w3.org/1999/xlink" x="0px" y="0px"
	 viewBox="0 0 70 70" style="enable-background:new 0 0 70 70;" xml:space="preserve">
<g>
	<path d="M52,63c-0.11,0-0.21-0.03-0.3-0.1l-35-26c-0.12-0.09-0.2-0.23-0.2-0.38c-0.01-0.15,0.06-0.3,0.17-0.4l35-30
		C51.77,6.04,51.88,6,52,6c0.07,0,0.14,0.02,0.21,0.05C52.39,6.13,52.5,6.3,52.5,6.5v56c0,0.19-0.11,0.36-0.28,0.45
		C52.15,62.98,52.08,63,52,63z" fill = "white"/>
	<path d="M52,6.5v56l-35-26L52,6.5 M52,5.5c-0.23,0-0.47,0.08-0.65,0.24l-35,30c-0.23,0.2-0.36,0.49-0.35,0.79
		c0.01,0.3,0.16,0.59,0.4,0.77l35,26c0.18,0.13,0.39,0.2,0.6,0.2c0.15,0,0.31-0.04,0.45-0.11C52.79,63.22,53,62.88,53,62.5v-56
		c0-0.39-0.23-0.75-0.58-0.91C52.28,5.53,52.14,5.5,52,5.5L52,5.5z" fill = "white"/>
</g>
</svg>
