<?xml version="1.0" encoding="utf-8"?>
<!-- Generator: Adobe Illustrator 24.1.2, SVG Export Plug-In . SVG Version: 6.00 Build 0)  -->
<svg version="1.1" id="Слой_1" xmlns="http://www.w3.org/2000/svg" xmlns:xlink="http://www.w3.org/1999/xlink" x="0px" y="0px"
	 viewBox="0 0 1920 180" style="enable-background:new 0 0 1920 180;" xml:space="preserve">
<style type="text/css">
	.st0{fill:#A04D4D;}
	.st1{fill-rule:evenodd;clip-rule:evenodd;fill:#FFFFFF;}
	.st2{fill-rule:evenodd;clip-rule:evenodd;fill:#A04D4D;}
	.st3{fill:#FFFFFF;}
</style>
<g id="Слой_1_1_">
	<g>
		<rect class="st0" width="1920" height="180"/>
	</g>
</g>
<g id="Слой_2_1_">
	<path class="st1" d="M107.6,67.5v33.7c69.9,18.6,137.5,18.8,203.2-0.4l0.1-32.8C245.1,45.6,176.8,45.3,107.6,67.5z"/>
	<g>
		<path class="st2" d="M119.8,67.8l-0.1,33.2l25.4-14.9l0.1,19.5c6.3,1.3,12.3,2.3,18.6,2.8l0.1-50.1L136,75.9V63.3
			C130.3,64.7,124.8,66.1,119.8,67.8z"/>
	</g>
	<g>
		<path class="st2" d="M276.5,63.3l0.2,38.1c15.8-2.8,24.6-11.2,22.3-20.8C297.4,73.7,287.7,65.7,276.5,63.3z"/>
	</g>
	<g>
		<path class="st2" d="M253.1,59.2v48.7c5.2-0.4,10.6-1.4,16.7-2.2V61.7C264.3,60.5,258.7,59.6,253.1,59.2z"/>
	</g>
	<path class="st1" d="M116.3,108.9l0.2,41.4l11.6,0v-38.7C123.9,110.3,120.2,109.6,116.3,108.9z"/>
	<path class="st1" d="M132.1,112.8l0.1,22.4h7.9C152.5,129.4,147.4,115.2,132.1,112.8z"/>
	<polygon class="st1" points="153.4,124.7 144.6,150.2 160.8,150.2 158,140.3 162.9,140.3 166,150.3 178.4,150.2 169.1,118.9 
		156.4,117.1 162.1,136.3 156.9,136.3 	"/>
	<path class="st1" d="M181.6,119.7c4.1,0.4,8.3,0.6,12.6,0.7v11.8h5.6l0.1-11.9l10.8,0.2l0.2,29.6l-11.2,0.1v-14l-5.6,0.2l-0.1,13.8
		l-12.6-0.1L181.6,119.7z"/>
	<path class="st1" d="M107.6,60.9l25.7-40c1.3-1.2,2.8-1.8,5-1.8l9,0.1c1.3,0,3,1,3.9,2.3L234.4,146c0.7,1,2.6,2.2,4.4,2.2l7.9,0
		c1,0,1.8-0.9,2.7-2.2l19.5-28.2l3.6-0.6l-21.3,30.4c-1.1,1.6-3,3.1-4.9,3.1l-6.9,0c-2.9,0-5.4-0.9-6.8-3L149.1,22.7
		c-0.6-1-2.3-1.1-3.6-1h-5.6c-2.2,0-3.9,0.2-5.1,1.9l-23.2,35.9L107.6,60.9z"/>
	<path class="st1" d="M116.8,57.9l23.9-37c1.3-1.2,2.8-1.8,5-1.8l10.4,0c1.3,0,3.1,1,4,2.3L241.8,146c0.7,1,2.6,2.2,4.4,2.2l8.5,0
		c1,0,1.8-0.9,2.7-2.2l21.3-30.1l3.5-0.6l-22.9,32.3c-1.1,1.6-2.7,3.1-4.6,3.1l-7.9,0c-2.9,0-5.4-0.9-6.8-3l-82.3-125
		c-0.6-1-2.3-1.1-3.6-1.1h-6.9c-2.2,0-3.9,0.2-5.1,1.9l-21.5,33.3L116.8,57.9z"/>
	<path class="st1" d="M126.3,55.4l22-34.4c1.3-1.2,2.8-1.8,5-1.8l11.8-0.1c1.3,0,3.1,1.1,4,2.4l80.3,124.6c0.7,1,2.6,2.2,4.4,2.2
		l8.5,0c1,0,1.8-1,2.7-2.2l23.5-32.2l3.7-0.8l-25.4,34.5c-1.1,1.6-2.7,3.1-4.6,3.1l-7.9,0c-2.9,0-5.4-0.9-6.8-3L166.9,22.7
		c-0.6-1-2.5-1-3.7-1h-8.4c-2.2,0-3.9,0.2-5.1,1.9L130,54.5L126.3,55.4z"/>
	<path class="st1" d="M135.4,53.3L157,21c1.3-1.2,2.8-1.8,5-1.8l11.1-0.1c1.3,0,3.1,1.1,4,2.4l80.3,124.6c0.7,1,2.6,2.2,4.4,2.2
		l8.5,0c1,0,1.8-0.9,2.7-2.2l24.6-34.6l4-1.2l-26.7,37.3c-1.1,1.6-2.7,3.1-4.6,3.1l-7.9,0c-2.9,0-5.5-0.9-6.8-3L174.9,22.7
		c-0.6-1-2.5-1-3.7-1h-7.7c-2.2,0-3.9,0.2-5.1,1.9L139,52.7L135.4,53.3z"/>
	<path class="st1" d="M144.3,51.8L164.1,21c1.3-1.2,2.8-1.8,5-1.8l11.8-0.1c1.3,0,3.1,1.1,4,2.4l80.3,124.6c0.7,1,2.6,2.2,4.4,2.2
		l8.5,0c1,0,1.8-0.9,2.7-2.2l26.1-37.6l4.2-1.5l-28.4,40.7c-1.1,1.6-2.7,3.1-4.6,3.1l-7.9,0c-2.9,0-5.5-0.9-6.8-3L182.7,22.7
		c-0.6-1-2.5-1-3.7-1h-8.4c-2.2,0-3.9,0.2-5.1,1.9l-17.8,27.6L144.3,51.8z"/>
	<g>
		<path class="st2" d="M173.5,57.8l0.2,52.1c5.5,0.5,11,0.9,16.5,1.3l0.2-44l7.1-0.3l0.3,44.2c5.6,0.3,11.2,0.4,16.8,0.2L214.4,56
			C200.5,55.2,187.1,55.8,173.5,57.8z"/>
	</g>
	<g>
		<path class="st2" d="M245.2,58.4l-0.1,45c-16.7-0.7-25.5-11.9-23.6-26C223.3,63.8,234.4,57.8,245.2,58.4z"/>
	</g>
	<circle class="st3" cx="411.5" cy="90.5" r="66.5"/>
	<circle class="st0" cx="411.5" cy="90.5" r="54.5"/>
	<circle class="st3" cx="411.5" cy="90.5" r="42.5"/>
	<circle class="st0" cx="411.5" cy="90.5" r="31.5"/>
	<rect x="412" y="85" class="st3" width="64" height="12"/>
	<g>
		<rect x="412" y="78" class="st0" width="69" height="7"/>
	</g>
	<rect x="412" y="97" class="st0" width="42" height="6"/>
	<g>
		<path class="st3" d="M578.9,52.3l3.8-9.8l3.7-8.4h5.9l-9.7,22l9.7,22.2h-5.9l-2.4-5.5l-5.1-12.9l-5,12.9l-2.5,5.5h-5.9l9.7-22.2
			l-9.7-22h5.9l3.7,8.3L578.9,52.3z"/>
		<path class="st3" d="M598.3,78.3v-44h5.5v44H598.3z"/>
		<path class="st3" d="M613.3,78.3v-44h5.5v44H613.3z"/>
		<path class="st3" d="M643.5,34.1h11c8.7,0,11.8,4.6,11.9,11.5c0.1,3.5-1.4,7-5.2,8.5c5.5,1.1,8,5,8,10.6c0,9.4-5.3,13.6-14.3,13.6
			h-11.4L643.5,34.1L643.5,34.1z M648.9,39.2v13.1h4.9c5.4,0,7.1-3.5,7.1-6.7c0-4.6-1.9-6.4-6.4-6.4H648.9z M655,73
			c6.6,0,8.6-3.2,8.6-8.3c0-5.7-3.3-7.2-8.4-7.2H649V73H655z"/>
		<path class="st3" d="M698.6,46.5c-0.1-5.3-1.1-7.7-8.5-7.7c-7.7,0-8.6,2.7-8.6,9.7v15.1c0,7,1.1,9.7,8.6,9.7s8.6-1.7,8.6-8.6h5.2
			c0,8.5-0.9,13.8-13.8,13.8S676,73.3,676,63.6v-15c0-9.7,2.3-14.9,14.1-14.9c11.4,0,13.7,4.3,13.8,12.8H698.6z"/>
		<path class="st3" d="M734.1,34.1v4.8h-16.8v13.3h15.2v5.1h-15.2v15.9h18.2v5.1h-23.7V34.1H734.1z"/>
		<path class="st3" d="M754.9,34.1c7.7,0,12.5,3.1,12.5,12v4.8c0,9.1-3.5,12.8-12.5,12.8h-6.4v14.6h-5.4V34.2L754.9,34.1z
			 M748.5,39.2v19.2h6.4c4.9,0,7.1-1.5,7.1-7.5v-4.8c0-6.1-2.2-6.6-7.1-6.9L748.5,39.2L748.5,39.2z"/>
		<path class="st3" d="M803.2,63.8c0,9.7-2.2,14.9-14.3,14.9s-14.3-5.2-14.3-14.9V48.4c0-9.7,2.2-14.9,14.3-14.9s14.3,5.2,14.3,14.9
			V63.8z M797.7,48.3c0-7-0.6-9.8-8.8-9.8s-8.8,2.9-8.8,9.8v15.5c0,7,0.6,9.7,8.8,9.7s8.8-2.7,8.8-9.7V48.3z"/>
		<path class="st3" d="M834.1,46.5c-0.1-5.3-1.1-7.7-8.5-7.7c-7.7,0-8.6,2.7-8.6,9.7v15.1c0,7,1.1,9.7,8.6,9.7s8.6-1.7,8.6-8.6h5.2
			c0,8.5-0.9,13.8-13.8,13.8s-14.1-5.3-14.1-14.9v-15c0-9.7,2.3-14.9,14.1-14.9c11.4,0,13.7,4.3,13.8,12.8H834.1z"/>
		<path class="st3" d="M869.2,46.5c-0.1-5.3-1.1-7.7-8.5-7.7c-7.7,0-8.6,2.7-8.6,9.7v15.1c0,7,1.1,9.7,8.6,9.7s8.6-1.7,8.6-8.6h5.2
			c0,8.5-0.9,13.8-13.8,13.8s-14.1-5.3-14.1-14.9v-15c0-9.7,2.3-14.9,14.1-14.9c11.4,0,13.7,4.3,13.8,12.8H869.2z"/>
		<path class="st3" d="M902.1,34h5.1v44.2h-5.4V61l0.3-14.5l-14.5,31.7h-5.1V34h5.4v18.8l-0.8,15L902.1,34z"/>
		<path class="st3" d="M936.2,34h5.1v44.2h-5.4V61l0.3-14.5l-14.5,31.7h-5.1V34h5.4v18.8l-0.8,15L936.2,34z M929.8,31.5
			c4.9,0,8.5-1.9,8.6-7.5h-4.6c-0.1,2.7-1.7,3.4-4,3.4c-2.4,0-4.1-0.6-4.2-3.4h-4.5C921.2,29.6,924.8,31.5,929.8,31.5z"/>
		<path class="st3" d="M972.6,46.5c-0.1-5.3-1.1-7.7-8.5-7.7c-7.7,0-8.6,2.7-8.6,9.7v15.1c0,7,1.1,9.7,8.6,9.7s8.6-1.7,8.6-8.6h5.2
			c0,8.5-0.9,13.8-13.8,13.8c-12.9,0-14.1-5.3-14.1-14.9v-15c0-9.7,2.3-14.9,14.1-14.9c11.4,0,13.7,4.3,13.8,12.8H972.6z"/>
		<path class="st3" d="M1006.8,78.2l-12.3-19.7H991v19.7h-5.4V34.1h5.4v19.4h2.1c4.1,0,5.6-4.3,7.1-8.5c2.1-6.1,4.1-11.8,11.8-10.8
			l-0.3,5c-4.6-0.5-5.1,4.2-6.3,7.5c-1.5,4.2-3,7.8-5.9,9.8l14,21.7L1006.8,78.2L1006.8,78.2z"/>
		<path class="st3" d="M1038.8,34h5.1v44.2h-5.4V61l0.3-14.5l-14.5,31.7h-5.1V34h5.4v18.8l-0.8,15L1038.8,34z"/>
		<path class="st3" d="M1072.9,34h5.1v44.2h-5.4V61l0.3-14.5l-14.5,31.7h-5.1V34h5.4v18.8l-0.8,15L1072.9,34z M1066.5,31.5
			c4.9,0,8.5-1.9,8.6-7.5h-4.6c-0.1,2.7-1.7,3.4-4,3.4c-2.4,0-4.1-0.6-4.2-3.4h-4.5C1057.9,29.6,1061.5,31.5,1066.5,31.5z"/>
		<path class="st3" d="M1125.1,46.5c-0.1-5.3-1.1-7.7-8.5-7.7c-7.7,0-8.6,2.7-8.6,9.7v15.1c0,7,1.1,9.7,8.6,9.7s8.6-1.7,8.6-8.6h5.2
			c0,8.5-0.9,13.8-13.8,13.8c-12.9,0-14.1-5.3-14.1-14.9v-15c0-9.7,2.3-14.9,14.1-14.9c11.4,0,13.7,4.3,13.8,12.8H1125.1z"/>
		<path class="st3" d="M1160.6,34.1v4.8h-16.8v13.3h15.2v5.1h-15.2v15.9h18.2v5.1h-23.7V34.1H1160.6z"/>
		<path class="st3" d="M1183.6,58.3l7.8-24.2h6.2v44.1h-5.4V57.5l0.8-12.1l-8.1,24.8h-2.6l-8.1-24.8l0.8,12.1v20.7h-5.4V34.1h6.2
			L1183.6,58.3z"/>
		<path class="st3" d="M1226.5,34h5.1v44.2h-5.4V61l0.3-14.5L1212,78.2h-5.1V34h5.4v18.8l-0.8,15L1226.5,34z"/>
		<path class="st3" d="M1261.4,78.2V59.8h-14.8v18.5h-5.5v-44h5.5v20.3h14.8V34.3h5.4v44L1261.4,78.2L1261.4,78.2z"/>
		<path class="st3" d="M1296,78.2l-2.2-8.2h-13.2l-2.2,8.2h-5.7l11.7-44h5.5l11.7,44H1296z M1287.1,41.3l-3,14.3l-2.2,9.2h10.4
			l-2.3-9.4L1287.1,41.3z"/>
		<path class="st3" d="M1319.4,34.1c7.7,0,12.5,3.1,12.5,12v4.8c0,9.1-3.5,12.8-12.5,12.8h-6.4v14.6h-5.4V34.2L1319.4,34.1z
			 M1313,39.2v19.2h6.4c4.9,0,7.1-1.5,7.1-7.5v-4.8c0-6.1-2.2-6.6-7.1-6.9L1313,39.2L1313,39.2z"/>
		<path class="st3" d="M1375.9,78.2V39.3h-14.9v38.9h-5.5V34.1c8.6,0,17.3,0,25.8,0v44.1H1375.9z"/>
		<path class="st3" d="M1418.7,63.8c0,9.7-2.2,14.9-14.3,14.9s-14.3-5.2-14.3-14.9V48.4c0-9.7,2.2-14.9,14.3-14.9
			s14.3,5.2,14.3,14.9V63.8z M1413.2,48.3c0-7-0.6-9.8-8.8-9.8c-8.2,0-8.8,2.9-8.8,9.8v15.5c0,7,0.6,9.7,8.8,9.7
			c8.2,0,8.8-2.7,8.8-9.7V48.3z"/>
		<path class="st3" d="M1455.3,34.1c7.7,0,12.5,3.1,12.5,12v4.8c0,9.1-3.5,12.8-12.5,12.8h-6.4v14.6h-5.4V34.2L1455.3,34.1z
			 M1448.8,39.2v19.2h6.4c4.9,0,7.1-1.5,7.1-7.5v-4.8c0-6.1-2.2-6.6-7.1-6.9L1448.8,39.2L1448.8,39.2z"/>
		<path class="st3" d="M1495.4,78.2l-2.2-8.2H1480l-2.2,8.2h-5.7l11.7-44h5.5l11.7,44H1495.4z M1486.6,41.3l-3,14.3l-2.2,9.2h10.4
			l-2.3-9.4L1486.6,41.3z"/>
		<path class="st3" d="M1505.8,73.1c4.5-3.8,5-10,5.1-15.5l0.9-23.5h21.4v39h3.9v11.5h-5.3v-6.3h-23.4v6.3h-5.2V73.1H1505.8z
			 M1527.6,73.1V39.2h-10.7l-0.4,18.4c-0.1,5.4-0.7,11.1-4.3,15.5H1527.6z"/>
		<path class="st3" d="M1563.5,34h5.1v44.2h-5.4V61l0.3-14.5L1549,78.2h-5.1V34h5.4v18.8l-0.8,15L1563.5,34z"/>
		<path class="st3" d="M1606,63.8c0,9.7-2.2,14.9-14.3,14.9s-14.3-5.2-14.3-14.9V48.4c0-9.7,2.2-14.9,14.3-14.9s14.3,5.2,14.3,14.9
			V63.8z M1600.5,48.3c0-7-0.6-9.8-8.8-9.8c-8.2,0-8.8,2.9-8.8,9.8v15.5c0,7,0.6,9.7,8.8,9.7c8.2,0,8.8-2.7,8.8-9.7V48.3z"/>
		<path class="st3" d="M1637,34.1v4.3l4.6-0.1c7.8,0,12.6,3.1,12.6,12.1v10.2c0,9-3.5,12.7-12.6,12.7h-4.6v4.9h-5.4v-4.9h-4.6
			c-9.2,0-12.6-3.7-12.6-12.7V50.4c0-9,4.8-12.1,12.6-12.1l4.6,0.1v-4.3H1637z M1627,43.5c-5,0.3-7.2,0.8-7.2,7v10.2
			c0,6,2.2,7.5,7.2,7.5h4.6V43.5H1627z M1637,43.5v24.6h4.6c4.9,0,7.1-1.5,7.1-7.5V50.4c0-6.2-2.2-6.7-7.1-7
			C1641.6,43.5,1637,43.5,1637,43.5z"/>
		<path class="st3" d="M1682.8,34h5.1v44.2h-5.4V61l0.3-14.5l-14.5,31.7h-5.1V34h5.4v18.8l-0.8,15L1682.8,34z"/>
		<path class="st3" d="M1700.7,65.9c0,5.1,1.9,7.4,6.7,7.4c4.7,0,7.5-2,7.5-8.1c0-6.3-3.8-8.3-7.9-8.3h-3.1v-4.8h3.1
			c3.2-0.1,7.5-2,7.5-7.2c0-4.1-2.2-6.4-6.6-6.4c-3.9,0-6.7,1.8-6.7,7.4h-5.1c0-8,4.1-12.1,12-12.2c6.6,0,11.7,3.6,11.7,11.3
			c0,3.3-1.4,7.7-5.9,9.5c4.5,1.7,6.6,4.5,6.6,10.7c0,8.3-4.3,13.4-12.9,13.4c-8.8,0-11.9-4.2-11.9-12.7
			C1695.5,65.9,1700.7,65.9,1700.7,65.9z"/>
		<path class="st3" d="M1747.8,34h5.1v44.2h-5.4V61l0.3-14.5l-14.5,31.7h-5.1V34h5.4v18.8l-0.8,15L1747.8,34z"/>
		<path class="st3" d="M1783.3,78.2l-12.3-19.7h-3.4v19.7h-5.4V34.1h5.4v19.4h2.1c4.1,0,5.6-4.3,7.1-8.5c2.1-6.1,4.1-11.8,11.8-10.8
			l-0.3,5c-4.6-0.5-5.1,4.2-6.3,7.5c-1.5,4.2-3,7.8-5.9,9.8l14,21.7L1783.3,78.2L1783.3,78.2z"/>
		<path class="st3" d="M1817.8,34.1v4.8H1801v13.3h15.2v5.1H1801v15.9h18.2v5.1h-23.7V34.1H1817.8z"/>
		<path class="st3" d="M583,126.9l7.8-24.2h6.2v44.1h-5.4v-20.8l0.8-12.1l-8.1,24.8h-2.6l-8.1-24.8l0.8,12.1v20.8H569v-44.1h6.2
			L583,126.9z"/>
		<path class="st3" d="M626,102.6h5.1v44.2h-5.4v-17.3l0.3-14.5l-14.5,31.7h-5.1v-44.2h5.4v18.8l-0.8,15L626,102.6z"/>
		<path class="st3" d="M636.8,141.7c8.3,0.5,7.9-7.2,8-16.1l0.2-22.9h22.9v44.1h-5.5v-39h-12l-0.2,17.9
			c-0.1,12.9-0.3,21.9-13.3,21.3V141.7z"/>
		<path class="st3" d="M673.4,141.7c8.3,0.5,7.9-7.2,8-16.1l0.2-22.9h22.9v44.1h-5.5v-39h-12l-0.2,17.9
			c-0.1,12.9-0.3,21.9-13.3,21.3V141.7z"/>
		<path class="st3" d="M733.4,102.6h5.1v44.2h-5.4v-17.3l0.3-14.5l-14.5,31.7h-5.1v-44.2h5.4v18.8l-0.8,15L733.4,102.6z"/>
		<path class="st3" d="M761.9,126.9l7.8-24.2h6.2v44.1h-5.4v-20.8l0.8-12.1l-8.1,24.8h-2.6l-8.1-24.8l0.8,12.1v20.8h-5.4v-44.1h6.2
			L761.9,126.9z"/>
		<path class="st3" d="M807.5,102.7v4.8h-16.8v13.3h15.2v5.1h-15.2v15.9H809v5.1h-23.7v-44.1H807.5z"/>
		<path class="st3" d="M827.5,108v38.8h-5.4V108H813v-5h23.7v5C836.7,108,827.5,108,827.5,108z"/>
		<path class="st3" d="M854.4,102.7c7.7,0,12.5,3.1,12.5,12v4.8c0,9.1-3.5,12.8-12.5,12.8H848v14.6h-5.4v-44.1L854.4,102.7z
			 M848,107.8V127h6.4c4.9,0,7.1-1.5,7.1-7.5v-4.8c0-6.1-2.2-6.6-7.1-6.9L848,107.8L848,107.8z"/>
		<path class="st3" d="M902.7,132.4c0,9.7-2.2,14.9-14.3,14.9s-14.3-5.2-14.3-14.9V117c0-9.7,2.2-14.9,14.3-14.9s14.3,5.2,14.3,14.9
			V132.4z M897.2,116.9c0-7-0.6-9.8-8.8-9.8s-8.8,2.9-8.8,9.8v15.5c0,7,0.6,9.7,8.8,9.7s8.8-2.7,8.8-9.7V116.9z"/>
		<path class="st3" d="M911.1,102.7h11c8.7,0,11.8,4.6,11.9,11.5c0.1,3.5-1.4,7-5.2,8.5c5.5,1.1,8,5,8,10.6
			c0,9.4-5.3,13.6-14.3,13.6h-11.4L911.1,102.7L911.1,102.7z M916.5,107.8v13.1h4.9c5.4,0,7.1-3.5,7.1-6.7c0-4.6-1.9-6.4-6.4-6.4
			C922.2,107.8,916.5,107.8,916.5,107.8z M922.7,141.6c6.6,0,8.6-3.2,8.6-8.3c0-5.7-3.3-7.2-8.4-7.2h-6.2v15.5L922.7,141.6
			L922.7,141.6z"/>
		<path class="st3" d="M944.3,146.8v-44.1h5.4v14.5h6.5c9,0,12.5,3.7,12.5,12.8v4.9c0,8.8-4.8,12-12.5,12H944.3z M956.2,141.7
			c4.9,0,7-0.8,7-6.9v-4.9c0-6-2.2-7.5-7-7.5h-6.5v19.3H956.2z M975.2,102.7h5.4v44.1h-5.4V102.7z"/>
		<path class="st3" d="M999.8,120.9l3.8-9.8l3.7-8.4h6l-9.7,22l9.7,22.2h-6l-2.4-5.5l-5.1-12.9l-5,12.9l-2.5,5.5h-5.9l9.7-22.2
			l-9.7-22h5.9l3.7,8.3L999.8,120.9z"/>
		<path class="st3" d="M1054.5,102.6h5.1v44.2h-5.4v-17.3l0.3-14.5l-14.5,31.7h-5.1v-44.2h5.4v18.8l-0.8,15L1054.5,102.6z"/>
		<path class="st3" d="M1106.7,115.2c-0.1-5.3-1.1-7.7-8.5-7.7c-7.7,0-8.6,2.7-8.6,9.7v15.1c0,7,1.1,9.7,8.6,9.7s8.6-1.7,8.6-8.6
			h5.2c0,8.5-0.9,13.8-13.8,13.8s-14.1-5.3-14.1-14.9v-15c0-9.7,2.3-14.9,14.1-14.9c11.4,0,13.7,4.3,13.8,12.8
			C1112,115.2,1106.7,115.2,1106.7,115.2z"/>
		<path class="st3" d="M1130.1,126.5c0.9-3.6,1.9-7.3,3-10.8l4.2-13h5.9l-10.6,31.1l-1.9,6.3c-2.1,6.8-5.9,8.5-12.3,5.8l1-4.6
			c2.4,0.9,4.9,1.4,6.2-2.9l1.4-4.8l-10.4-31h6.2l4.2,13.3L1130.1,126.5z"/>
		<path class="st3" d="M1153.9,107.8c0,4.2,0,8.3,0,12.5h5.8c8.9,0,14.2,4.2,14.2,13.4c0,9.1-5.3,13.1-14.2,13.1h-11.4
			c0-14.7,0-29.4,0-44.1h21.9v5.1L1153.9,107.8L1153.9,107.8z M1159.9,125.4h-5.9v16.2h5.9c6.6,0,8.6-3.1,8.6-7.9
			C1168.5,128.8,1166.5,125.4,1159.9,125.4z"/>
		<path class="st3" d="M1195.5,126.9l7.8-24.2h6.2v44.1h-5.4v-20.8l0.8-12.1l-8.1,24.8h-2.6l-8.1-24.8l0.8,12.1v20.8h-5.4v-44.1h6.2
			L1195.5,126.9z"/>
		<path class="st3" d="M1238.5,102.6h5.1v44.2h-5.4v-17.3l0.3-14.5l-14.5,31.7h-5.1v-44.2h5.4v18.8l-0.8,15L1238.5,102.6z"/>
		<path class="st3" d="M1249.3,141.7c8.3,0.5,7.9-7.2,7.9-16.1l0.2-22.9h22.9v44.1h-5.5v-39h-12l-0.2,17.9
			c-0.1,12.9-0.3,21.9-13.3,21.3V141.7z"/>
		<path class="st3" d="M1285.9,141.7c8.3,0.5,7.9-7.2,7.9-16.1l0.2-22.9h22.9v44.1h-5.5v-39h-12l-0.2,17.9
			c-0.1,12.9-0.3,21.9-13.3,21.3V141.7z"/>
		<path class="st3" d="M1345.9,102.6h5.1v44.2h-5.4v-17.3l0.3-14.5l-14.5,31.7h-5.1v-44.2h5.4v18.8l-0.8,15L1345.9,102.6z"/>
		<path class="st3" d="M1374.4,126.9l7.8-24.2h6.2v44.1h-5.4v-20.8l0.8-12.1l-8.1,24.8h-2.6L1365,114l0.8,12.1v20.8h-5.4v-44.1h6.2
			L1374.4,126.9z"/>
		<path class="st3" d="M1420,102.7v4.8h-16.8v13.3h15.2v5.1h-15.2v15.9h18.2v5.1h-23.7v-44.1H1420z"/>
		<path class="st3" d="M1440.1,108v38.8h-5.4V108h-9.2v-5h23.7v5C1449.2,108,1440.1,108,1440.1,108z"/>
		<path class="st3" d="M1466.9,102.7c7.7,0,12.5,3.1,12.5,12v4.8c0,9.1-3.5,12.8-12.5,12.8h-6.4v14.6h-5.4v-44.1L1466.9,102.7z
			 M1460.5,107.8V127h6.4c4.9,0,7.1-1.5,7.1-7.5v-4.8c0-6.1-2.2-6.6-7.1-6.9L1460.5,107.8L1460.5,107.8z"/>
		<path class="st3" d="M1515.2,132.4c0,9.7-2.2,14.9-14.3,14.9s-14.3-5.2-14.3-14.9V117c0-9.7,2.2-14.9,14.3-14.9
			s14.3,5.2,14.3,14.9V132.4z M1509.7,116.9c0-7-0.6-9.8-8.8-9.8c-8.2,0-8.8,2.9-8.8,9.8v15.5c0,7,0.6,9.7,8.8,9.7
			c8.2,0,8.8-2.7,8.8-9.7V116.9z"/>
		<path class="st3" d="M1523.6,102.7h11c8.7,0,11.8,4.6,11.9,11.5c0.1,3.5-1.4,7-5.2,8.5c5.5,1.1,7.9,5,8,10.6
			c0,9.4-5.3,13.6-14.3,13.6h-11.4V102.7z M1529.1,107.8v13.1h4.9c5.4,0,7.1-3.5,7.1-6.7c0-4.6-1.9-6.4-6.4-6.4
			C1534.7,107.8,1529.1,107.8,1529.1,107.8z M1535.2,141.6c6.6,0,8.6-3.2,8.6-8.3c0-5.7-3.3-7.2-8.4-7.2h-6.2v15.5L1535.2,141.6
			L1535.2,141.6z"/>
		<path class="st3" d="M1556.8,146.8v-44.1h5.4v14.5h6.5c9,0,12.5,3.7,12.5,12.8v4.9c0,8.8-4.8,12-12.5,12H1556.8z M1568.7,141.7
			c4.9,0,7-0.8,7-6.9v-4.9c0-6-2.2-7.5-7-7.5h-6.5v19.3H1568.7z M1587.7,102.7h5.4v44.1h-5.4V102.7z"/>
		<path class="st3" d="M1612.3,120.9l3.8-9.8l3.7-8.4h5.9l-9.7,22l9.7,22.2h-5.9l-2.4-5.5l-5.1-12.9l-5,12.9l-2.5,5.5h-5.9l9.7-22.2
			l-9.7-22h5.9l3.7,8.3L1612.3,120.9z"/>
		<path class="st3" d="M1646.9,102.7h11c8.7,0,11.8,4.6,11.9,11.5c0.1,3.5-1.4,7-5.2,8.5c5.5,1.1,7.9,5,8,10.6
			c0,9.4-5.3,13.6-14.3,13.6h-11.4V102.7z M1652.3,107.8v13.1h4.9c5.4,0,7.1-3.5,7.1-6.7c0-4.6-1.9-6.4-6.4-6.4
			C1657.9,107.8,1652.3,107.8,1652.3,107.8z M1658.4,141.6c6.6,0,8.6-3.2,8.6-8.3c0-5.7-3.3-7.2-8.4-7.2h-6.2v15.5L1658.4,141.6
			L1658.4,141.6z"/>
		<path class="st3" d="M1708,132.4c0,9.7-2.2,14.9-14.3,14.9s-14.3-5.2-14.3-14.9V117c0-9.7,2.2-14.9,14.3-14.9s14.3,5.2,14.3,14.9
			V132.4z M1702.6,116.9c0-7-0.6-9.8-8.8-9.8c-8.2,0-8.8,2.9-8.8,9.8v15.5c0,7,0.6,9.7,8.8,9.7c8.2,0,8.8-2.7,8.8-9.7V116.9z"/>
		<path class="st3" d="M1713.3,141.7c8.3,0.5,7.9-7.2,7.9-16.1l0.2-22.9h22.9v44.1h-5.5v-39h-12l-0.2,17.9
			c-0.1,12.9-0.3,21.9-13.3,21.3L1713.3,141.7L1713.3,141.7z"/>
		<path class="st3" d="M1773.9,146.8v-18.5h-14.8v18.5h-5.5v-44h5.5v20.3h14.8v-20.3h5.4v44L1773.9,146.8L1773.9,146.8z"/>
	</g>
</g>
</svg>
