<?xml version="1.0" encoding="utf-8"?>
<!-- Generator: Adobe Illustrator 24.1.2, SVG Export Plug-In . SVG Version: 6.00 Build 0)  -->
<svg version="1.1" id="Слой_1" xmlns="http://www.w3.org/2000/svg" xmlns:xlink="http://www.w3.org/1999/xlink" x="0px" y="0px"
	 viewBox="0 0 70 70" style="enable-background:new 0 0 70 70;" xml:space="preserve">
<g>
	<path d="M17,63c-0.07,0-0.14-0.01-0.21-0.05c-0.18-0.08-0.29-0.26-0.29-0.45l-0.01-56c0-0.19,0.11-0.36,0.28-0.45
		C16.84,6.02,16.92,6,17,6c0.11,0,0.21,0.03,0.3,0.1l35,26c0.12,0.09,0.2,0.23,0.2,0.38c0,0.15-0.06,0.3-0.17,0.4l-35,30
		C17.24,62.96,17.12,63,17,63z" fill = "white"/>
	<path d="M17,6.5l35,26l-35,30L17,6.5 M17,5.5c-0.15,0-0.31,0.04-0.45,0.11C16.21,5.78,16,6.12,16,6.5l0.01,56
		c0,0.39,0.23,0.75,0.58,0.91c0.13,0.06,0.28,0.09,0.42,0.09c0.23,0,0.47-0.08,0.65-0.24l35-30c0.23-0.2,0.36-0.49,0.35-0.79
		c-0.01-0.3-0.16-0.59-0.4-0.77l-35-26C17.42,5.57,17.21,5.5,17,5.5L17,5.5z" fill = "white"/>
</g>
</svg>
